<?xml version="1.0" encoding="utf-8"?>
<!-- Generator: Adobe Illustrator 21.0.2, SVG Export Plug-In . SVG Version: 6.00 Build 0)  -->
<svg version="1.1" baseProfile="tiny" xmlns="http://www.w3.org/2000/svg" xmlns:xlink="http://www.w3.org/1999/xlink" x="0px"
	 y="0px" viewBox="0 0 245.8 43.9" xml:space="preserve">
<g id="Background_xA0_Image_1_">
</g>
<g id="DataPort">
	<g>
		<path fill="#FFFFFF" d="M75.2,33.8c0.1-0.6,0.9-3.6,1.1-4.3c0.3-1.4,0.6-2.8,1-4.2l2.1-9.5C81.5,6,81.7,4.9,82.5,0.4l0.4-0.3
			l6.4,0c4.5,0,9.3,0,12.3,4.1c1.6,2.2,2.1,4.8,2.1,7.5c0,4.4-1.5,11.7-5.5,16.7c-4.5,5.6-9.8,5.7-16.5,5.7h-6.3L75.2,33.8z
			 M84.8,14.1c-0.6,2.8-1.7,7.2-2.3,10.1c-0.3,1.4-1.1,5.2-1.2,6h2.1c3.6,0,6.6,0,9.7-3.1c3.4-3.4,5.5-10.2,5.5-15.2
			c0-1.2,0-5.7-4-7.3c-1.6-0.6-3.4-0.6-5.2-0.6l-2.2,0L84.8,14.1z"/>
		<path fill="#FFFFFF" d="M124.2,18.7c-1.9,8.4-2.4,11.5-3,15L121,34c-1.8,0-2.4,0-4.4,0.1l-0.2-0.2l0.6-2.4c-1,1-2.9,3-6.2,3
			c-1.7,0-3.4-0.6-4.6-2c-1-1.2-1.7-3.1-1.7-5.6c0-3.6,1.3-10.2,6-14.5c3.4-3.1,6.4-3.2,9.1-3.3h6.5l0.2,0.3L124.2,18.7z
			 M117.5,27.8c0.4-1.7,0.5-2,1.6-7.3c0.5-2.4,1-4.3,1.7-7.9c-0.4,0-0.9,0-1.3,0c-2.5,0-4.1,0.7-5.7,2.4c-3.2,3.3-4.4,9.2-4.4,11.5
			c0,2.3,0.8,4.4,3.4,4.4C115,30.8,116.5,29.7,117.5,27.8z"/>
		<path fill="#FFFFFF" d="M136.4,30.3c-0.3,1.2-0.5,1.8-0.9,3.3l-0.3,0.3c-1,0.3-1.8,0.5-2.8,0.5c-1.4,0-3-0.3-4-1.5
			c-1-1.1-1.1-2.3-1.1-3c0-0.5,0-1.1,0.1-1.6c0.3-1.7,1.1-5.2,1.8-8.1l1.8-7.6c-1.3,0-1.5,0-2.8,0l-0.1-0.3c0.4-1.5,0.5-1.7,0.8-3
			l0.2-0.3c1,0,1.3,0.1,2.6,0.1c0.7-2.9,0.8-3.5,1.2-6l0.3-0.2c2-0.5,2.7-0.6,4.7-1.2l0.2,0.2c-0.4,1.4-0.5,1.7-1,3.5l-0.9,3.6
			c1.8,0,2.5,0,3.8-0.1l0.1,0.3c-0.5,1.4-0.6,1.8-0.9,3l-0.3,0.3c-1.6,0-1.9,0-3.6,0l-2.5,10.8c-0.4,1.8-1,4.2-1,5.2
			c0,0.9,0.3,2,2,2c0.9,0,1.5-0.3,2.1-0.5L136.4,30.3z"/>
		<path fill="#FFFFFF" d="M158.3,18.7c-1.9,8.4-2.4,11.5-3,15L155,34c-1.8,0-2.4,0-4.4,0.1l-0.2-0.2l0.6-2.4c-1,1-2.9,3-6.2,3
			c-1.7,0-3.4-0.6-4.6-2c-1-1.2-1.7-3.1-1.7-5.6c0-3.6,1.3-10.2,6-14.5c3.4-3.1,6.4-3.2,9.1-3.3h6.5l0.2,0.3L158.3,18.7z
			 M151.5,27.8c0.4-1.7,0.5-2,1.6-7.3c0.5-2.4,1-4.3,1.7-7.9c-0.4,0-0.9,0-1.3,0c-2.5,0-4.1,0.7-5.7,2.4c-3.2,3.3-4.4,9.2-4.4,11.5
			c0,2.3,0.8,4.4,3.4,4.4C149,30.8,150.5,29.7,151.5,27.8z"/>
		<path fill="#FFFFFF" d="M166.8,27.4c-0.3,1.5-0.7,3.3-1.2,6.3l-0.3,0.3c-2.4,0-2.9,0-4.8,0.1l-0.2-0.3c0.8-3.1,1.5-6.2,2.3-9.3
			l1.2-5.4c0.4-1.9,0.9-3.9,1.3-5.8c1.6-7.1,1.9-8.5,2.7-12.9l0.3-0.3h6.4c2.4,0,5.4,0,7.5,2.2c0.8,0.9,1.9,2.6,1.9,5.6
			c0,3.2-1.2,7.2-3.2,9.6c-3,3.6-7.1,3.6-10.4,3.7h-2.1L166.8,27.4z M169.1,17.3c2.1,0,3.5,0,4.8-0.4c4.3-1.5,4.9-7,4.9-8.6
			c0-2.1-0.7-3.6-2.4-4.2c-0.9-0.3-1.4-0.3-4.4-0.3c0,0.2-0.1,0.3-0.1,0.5c-0.2,1.1-0.6,2.7-0.9,3.8L169.1,17.3z"/>
		<path fill="#FFFFFF" d="M191,34.6c-2.2,0-4.5-0.7-6-2.3c-1.7-1.8-2.2-4.3-2.2-6.8c0-4.4,1.9-16.9,12.3-16.9c2.3,0,4.5,0.7,6,2.4
			c1.6,1.8,2.1,4.3,2.1,6.6C203.3,20,202.3,34.6,191,34.6z M195.7,28.4c1.7-3,2.9-8.4,2.9-11.7c0-0.9,0-4.8-3.6-4.8
			c-2.2,0-3.8,1.4-4.8,3.6c-1,2.1-2.4,7-2.4,10.8c0,1.6,0.2,4.9,3.7,4.9C192.9,31.2,194.4,30.7,195.7,28.4z"/>
		<path fill="#FFFFFF" d="M209.8,29.2c-0.3,1.7-0.6,3-0.9,4.5l-0.3,0.3c-1.7,0-2.5,0-4.5,0.1l-0.2-0.2c0.1-0.5,0.8-3.1,0.9-3.7
			c0.3-1.1,0.5-2.2,0.8-3.3l1.1-4.6c1.5-6.9,2-9.2,2.4-12.4l0.3-0.3c2.2-0.3,2.6-0.4,4.6-0.8l0.2,0.2c-0.7,3-0.8,3.2-1.2,5.1
			c1.2-2.2,2.8-5.2,6-5.2c1.1,0,1.6,0.3,1.9,0.6l0,0.4c-0.2,0.7-0.5,1.5-0.8,2.2c-0.3,0.8-0.5,1.5-0.8,2.3l-0.3,0.1
			c-0.4-0.3-0.8-0.5-1.9-0.5c-1.3,0-2.2,0.6-2.8,1.1c-1.8,1.6-2.4,4.4-3.6,9.2L209.8,29.2z"/>
		<path fill="#FFFFFF" d="M229.9,30.3c-0.3,1.2-0.5,1.8-0.9,3.3l-0.3,0.3c-1,0.3-1.8,0.5-2.8,0.5c-1.4,0-3-0.3-4-1.5
			c-1-1.1-1.1-2.3-1.1-3c0-0.5,0-1.1,0.1-1.6c0.3-1.7,1.1-5.2,1.8-8.1l1.8-7.6c-1.3,0-1.5,0-2.8,0l-0.1-0.3c0.4-1.5,0.5-1.7,0.8-3
			l0.2-0.3c1,0,1.3,0.1,2.6,0.1c0.7-2.9,0.8-3.5,1.2-6l0.3-0.2c2-0.5,2.7-0.6,4.7-1.2l0.2,0.2c-0.4,1.4-0.5,1.7-1,3.5L230,9.1
			c1.8,0,2.5,0,3.8-0.1l0.1,0.3c-0.5,1.4-0.6,1.8-0.9,3l-0.3,0.3c-1.6,0-1.9,0-3.6,0l-2.5,10.8c-0.4,1.8-1,4.2-1,5.2
			c0,0.9,0.3,2,2,2c0.9,0,1.5-0.3,2.1-0.5L229.9,30.3z"/>
	</g>
</g>
<g id="IEEE">
	<g>
		<path fill="#FFFFFF" d="M5.6,34c-2.2,0-2.8,0-4.9,0.1l-0.3-0.3c0-3.1,0.1-6.2,0.1-9.3c0-1.2,0-11.6-0.1-16.8
			C0.3,4.4,0.2,2.4,0.1,0.4l0.2-0.3c2.2,0,2.8,0,5-0.1l0.2,0.2c0,3.6-0.1,7-0.1,10.4c0,7.7,0.1,15.4,0.4,23.1L5.6,34z"/>
		<path fill="#FFFFFF" d="M17.5,18.2c0,6.3,0,6.4,0.1,11.9h3c3.9,0,6-0.1,8.6-0.2l0.3,0.3c-0.1,1.7-0.1,1.8-0.2,3.6L29,34h-7.7
			c-4.6,0-6.6,0-8.6,0.1l-0.2-0.2c0-1.8,0.1-4.5,0.1-9c0-4.1-0.1-12.2-0.1-16.9c-0.1-4.1-0.1-5.3-0.2-7.6l0.2-0.3
			c9.7,0,12.7,0,16.4-0.1l0.3,0.3c-0.1,1.4-0.1,2-0.2,3.4L28.6,4c-4.8-0.1-5.3-0.1-8.8-0.1h-2.4c0,4.7,0,6,0,10.7h3.3
			c4.4,0,5.7-0.1,7.4-0.1l0.3,0.3c-0.1,1.5-0.1,1.9-0.2,3.3l-0.3,0.3c-2.4,0-4,0-7.2,0H17.5z"/>
		<path fill="#FFFFFF" d="M39.5,18.2c0,6.3,0,6.4,0.1,11.9h3c3.9,0,6-0.1,8.6-0.2l0.3,0.3c-0.1,1.7-0.1,1.8-0.2,3.6L51,34h-7.7
			c-4.6,0-6.6,0-8.6,0.1l-0.2-0.2c0-1.8,0.1-4.5,0.1-9c0-4.1-0.1-12.2-0.1-16.9c-0.1-4.1-0.1-5.3-0.2-7.6l0.2-0.3
			c9.7,0,12.7,0,16.4-0.1l0.3,0.3c-0.1,1.4-0.1,2-0.2,3.4L50.6,4c-4.8-0.1-5.3-0.1-8.8-0.1h-2.4c0,4.7,0,6,0,10.7h3.3
			c4.4,0,5.7-0.1,7.4-0.1l0.3,0.3c-0.1,1.5-0.1,1.9-0.2,3.3l-0.3,0.3c-2.4,0-4,0-7.2,0H39.5z"/>
		<path fill="#FFFFFF" d="M61.4,18.2c0,6.3,0,6.4,0.1,11.9h3c3.9,0,6-0.1,8.6-0.2l0.3,0.3c-0.1,1.7-0.1,1.8-0.2,3.6L73,34h-7.7
			c-4.6,0-6.6,0-8.6,0.1l-0.2-0.2c0-1.8,0.1-4.5,0.1-9c0-4.1-0.1-12.2-0.1-16.9c-0.1-4.1-0.1-5.3-0.2-7.6l0.2-0.3
			c9.7,0,12.7,0,16.4-0.1l0.3,0.3c-0.1,1.4-0.1,2-0.2,3.4L72.6,4c-4.8-0.1-5.3-0.1-8.8-0.1h-2.4c0,4.7,0,6,0,10.7h3.3
			c4.4,0,5.7-0.1,7.4-0.1l0.3,0.3c-0.1,1.5-0.1,1.9-0.2,3.3l-0.3,0.3c-2.4,0-4,0-7.2,0H61.4z"/>
	</g>
</g>
<g id="_x2122_">
	<g>
		<path fill="#FFFFFF" d="M234.8,6.1h-0.7V2.7h-1.3V2.1h3.2v0.6h-1.3V6.1z M240.3,6.1h-0.7l0-2.5l0-0.8l-0.2,0.7l-0.8,2.6H238
			l-0.8-2.6L237,2.8l0,0.8l0,2.5h-0.7v-4h0.9l1,3.1l1-3.1h0.9V6.1z"/>
	</g>
</g>
</svg>
