<svg xmlns="http://www.w3.org/2000/svg" viewBox="0 0 239.99 70.14"><defs><style>.cls-1,.cls-2{fill:#0072a6;}.cls-2{fill-rule:evenodd;}</style></defs><title>Asset 7</title><g id="Layer_2" data-name="Layer 2"><g id="IEEE_Master_Brand" data-name="IEEE Master Brand"><path class="cls-1" d="M68.82,32.8c-2.57-2.36-10.55-7.56-17.24-14.24S39.67,3.9,37.34,1.32c-1.76-1.76-2.78-1.76-4.54,0C30.47,3.9,25.19,11.93,18.56,18.56S3.9,30.65,1.32,32.8c-1.76,1.76-1.76,2.78,0,4.54C3.9,39.64,11.93,45,18.56,51.58S30.48,66.25,32.8,68.82c1.76,1.76,2.78,1.76,4.54,0,2.3-2.57,7.56-10.55,14.24-17.24S66.3,39.46,68.82,37.34C70.58,35.58,70.58,34.56,68.82,32.8Zm-8,4.09a129.17,129.17,0,0,1-11.32,13.2h0A118.22,118.22,0,0,1,37,60.88h0a3.3,3.3,0,0,1-3.92,0,127.5,127.5,0,0,1-12.74-11h0a126.31,126.31,0,0,1-11-12.74h0a3.3,3.3,0,0,1,0-3.92A126.38,126.38,0,0,1,20.36,20.42h0A128.71,128.71,0,0,1,33.1,9.37a3.27,3.27,0,0,1,3.92,0h0A127.81,127.81,0,0,1,49.77,20.42h0A123.74,123.74,0,0,1,60.84,33.34h0A2.74,2.74,0,0,1,60.84,36.89Z"/><path class="cls-1" d="M59,33.48a110.86,110.86,0,0,0-10.27-12h0A118.53,118.53,0,0,0,36.88,11.22h0l0,0a3,3,0,0,0-3.61,0A116.45,116.45,0,0,0,21.42,21.48h0A116.06,116.06,0,0,0,11.16,33.31a3,3,0,0,0,0,3.64h0A116.45,116.45,0,0,0,21.41,48.78h0A117.46,117.46,0,0,0,33.24,59a3.06,3.06,0,0,0,3.64,0h0A110,110,0,0,0,48.47,49h0A121.45,121.45,0,0,0,59,36.77a2.57,2.57,0,0,0,0-3.29ZM35,16.56l3.88,11.17H36.3l.49,10.64a10,10,0,0,1-3.5,0l.46-10.62H31.11ZM32.76,52.17l.48-10.94a18.7,18.7,0,0,0,3.74,0l.5,11A12.49,12.49,0,0,1,32.76,52.17ZM34.4,40.59c-8,0-14.56-2.59-14.58-5.78,0-2.2,3.06-4.1,7.6-5.09L30.88,32c-3.54.64-6,1.93-6,3.43,0,2.12,4.89,3.84,10.92,3.84,5.18,0,11-1.72,11-3.84,0-1.34-1.57-2.12-3.08-2.86L41.68,33l-1.09-3,6.7,1.63L45.78,32s2.55,1.32,3.1,2.8C49.94,38,43,40.59,34.4,40.59Z"/><path class="cls-2" d="M47.05,62.37a2.46,2.46,0,1,0,2.46,2.45A2.37,2.37,0,0,0,47.05,62.37Zm0,4.34h0a1.89,1.89,0,1,1,1.76-1.89A1.77,1.77,0,0,1,47.05,66.71Zm1.1-2.41c0-.61-.4-.8-1.08-.8h-1v2.65h.57V65h.26l.61,1.12h.68L47.51,65A.62.62,0,0,0,48.15,64.3Zm-1,.28h-.5V64H47c.22,0,.51,0,.51.29S47.4,64.58,47.15,64.58Z"/><polygon class="cls-1" points="79.98 62.28 79.98 9.26 94.66 9.26 94.66 62.28 79.98 62.28 79.98 62.28"/><polygon class="cls-1" points="102.37 62.28 102.37 9.26 142.76 9.26 142.76 19.54 117.06 19.54 117.06 30.48 140.7 30.48 140.7 40.76 117.06 40.76 117.06 52 142.76 52 142.76 62.28 102.37 62.28 102.37 62.28"/><polygon class="cls-1" points="150.99 62.28 150.99 9.26 191.37 9.26 191.37 19.54 165.68 19.54 165.68 30.48 189.31 30.48 189.31 40.76 165.68 40.76 165.68 52 191.37 52 191.37 62.28 150.99 62.28 150.99 62.28"/><polygon class="cls-1" points="199.59 62.28 199.59 9.26 239.99 9.26 239.99 19.54 214.29 19.54 214.29 30.48 237.93 30.48 237.93 40.76 214.29 40.76 214.29 52 239.99 52 239.99 62.28 199.59 62.28 199.59 62.28"/></g></g></svg>